<svg xmlns="http://www.w3.org/2000/svg" viewBox="0 0 32 32">
    <path style="text-indent:0;text-align:start;line-height:normal;text-transform:none;block-progression:tb;-inkscape-font-specification:Sans" d="M 16 3 C 8.8324839 3 3 8.8324839 3 16 C 3 23.167516 8.8324839 29 16 29 C 23.167516 29 29 23.167516 29 16 C 29 12.417905 27.53859 9.1655168 25.1875 6.8125 L 27 5 L 21 4 L 22 10 L 23.78125 8.21875 C 25.770055 10.21025 27 12.95623 27 16 C 27 22.086484 22.086484 27 16 27 C 9.9135161 27 5 22.086484 5 16 C 5 9.9135161 9.9135161 5 16 5 L 16 3 z M 16 8 C 13.250421 8 11 10.250421 11 13 C 11 14.515649 11.706976 15.862268 12.78125 16.78125 C 10.533165 17.948498 9 20.301065 9 23 L 11 23 C 11 20.226334 13.226334 18 16 18 C 18.773666 18 21 20.226334 21 23 L 23 23 C 23 20.301065 21.466835 17.948498 19.21875 16.78125 C 20.293024 15.862268 21 14.515649 21 13 C 21 10.250421 18.749579 8 16 8 z M 16 10 C 17.668699 10 19 11.331301 19 13 C 19 14.668699 17.668699 16 16 16 C 14.331301 16 13 14.668699 13 13 C 13 11.331301 14.331301 10 16 10 z" overflow="visible">
    </path>
</svg>
